<svg viewBox="0 0 262 125" fill="none" xmlns="http://www.w3.org/2000/svg">
<path opacity="0.3" d="M60.8755 124.259C59.6026 121.947 57.508 120.195 55.005 119.349C52.5019 118.504 49.7723 118.626 47.3549 119.691C47.1618 118.498 46.6953 117.365 45.9917 116.381C45.2882 115.397 44.3666 114.589 43.2987 114.019C42.2309 113.449 41.0456 113.133 39.8354 113.095C38.6251 113.058 37.4225 113.3 36.3213 113.802C35.6708 112.129 34.4629 110.73 32.9008 109.841C31.3388 108.953 29.5178 108.628 27.7442 108.922C25.9706 109.216 24.3526 110.111 23.1622 111.457C21.9719 112.802 21.2819 114.515 21.2082 116.309C19.7749 116.916 18.4934 117.832 17.455 118.99C17.0607 118.044 16.3891 117.239 15.5284 116.681C14.6678 116.123 13.6582 115.837 12.6321 115.862C11.6061 115.887 10.6115 116.221 9.77896 116.82C8.94639 117.419 8.3147 118.256 7.96677 119.22C6.86736 118.64 5.65286 118.312 4.41082 118.257C3.16878 118.203 1.93015 118.425 0.784253 118.906C-0.361648 119.388 -1.38627 120.117 -2.21575 121.041C-3.04522 121.966 -3.65887 123.063 -4.01245 124.253L60.8755 124.259Z" fill="#F1F2F2"/>
<path opacity="0.3" d="M331.06 29.6604C330.749 27.1682 329.537 24.875 327.652 23.2122C325.767 21.5494 323.338 20.6315 320.822 20.6311C320.823 17.7151 319.935 14.8679 318.278 12.4671C316.62 10.0663 314.271 8.22541 311.541 7.18849C308.811 6.15158 305.83 5.96769 302.993 6.66123C300.157 7.35476 297.598 8.89294 295.657 11.0717C294.467 10.7623 293.243 10.606 292.014 10.6065C291.87 10.6065 291.727 10.6065 291.583 10.6065C290.611 7.23682 288.451 4.33187 285.502 2.42788C282.552 0.523903 279.013 -0.250556 275.536 0.247464C272.059 0.745485 268.881 2.48236 266.586 5.13749C264.292 7.79261 263.037 11.1867 263.054 14.6933C263.054 14.8242 263.054 14.955 263.054 15.0859C260.935 14.4862 258.681 14.5756 256.617 15.3411C255.726 13.8572 254.475 12.6213 252.979 11.7474C251.484 10.8734 249.792 10.3896 248.06 10.3405C246.328 10.2914 244.611 10.6786 243.068 11.4665C241.526 12.2543 240.207 13.4174 239.233 14.8484C237.75 14.5896 236.228 14.6578 234.774 15.0482C233.32 15.4387 231.97 16.1419 230.817 17.1087C229.664 18.0754 228.737 19.2822 228.101 20.6445C227.464 22.0068 227.134 23.4915 227.134 24.9946C227.134 25.1556 227.134 25.3146 227.145 25.4755C224.495 24.6703 221.67 24.6361 219.001 25.377C216.332 26.1178 213.929 27.603 212.076 29.6585L331.06 29.6604Z" fill="#F1F2F2"/>
<path opacity="0.3" d="M113.169 18.4837C111.897 16.1698 109.803 14.4161 107.299 13.569C104.796 12.7218 102.065 12.8429 99.6463 13.9081C99.4532 12.7147 98.9867 11.5819 98.2832 10.598C97.5796 9.61412 96.658 8.80571 95.5902 8.23579C94.5224 7.66587 93.3371 7.34983 92.1269 7.3123C90.9166 7.27477 89.714 7.51676 88.6128 8.01942C87.9609 6.34641 86.7517 4.9486 85.1888 4.06111C83.6258 3.17363 81.8044 2.85061 80.031 3.14641C78.2575 3.4422 76.6402 4.33876 75.451 5.68526C74.2619 7.03177 73.5735 8.74606 73.5016 10.5398C72.0683 11.1472 70.7868 12.0627 69.7484 13.2211C69.3541 12.2751 68.6826 11.4701 67.8219 10.9119C66.9612 10.3537 65.9516 10.0683 64.9256 10.0931C63.8995 10.1179 62.905 10.4519 62.0724 11.0511C61.2398 11.6503 60.6081 12.4868 60.2602 13.4508C59.1608 12.8713 57.9463 12.5425 56.7043 12.4882C55.4622 12.434 54.2236 12.6556 53.0777 13.137C51.9318 13.6184 50.9072 14.3477 50.0777 15.2723C49.2482 16.1969 48.6346 17.2937 48.281 18.4837H113.169Z" fill="#F1F2F2"/>
<path opacity="0.3" d="M118.491 86.0272C118.596 85.5629 118.824 85.1356 119.153 84.7907C119.481 84.4458 119.897 84.1962 120.356 84.0684C120.816 83.9405 121.301 83.9392 121.761 84.0647C122.22 84.1901 122.638 84.4376 122.968 84.7808C123.798 84.0638 124.826 83.6137 125.917 83.4892C125.941 82.871 126.107 82.2666 126.4 81.7217C126.693 81.1768 127.107 80.7058 127.61 80.3444C128.113 79.9831 128.692 79.7408 129.303 79.6361C129.913 79.5314 130.54 79.5669 131.135 79.74C131.55 78.8245 132.291 78.0955 133.214 77.6947C134.137 77.2939 135.177 77.2498 136.131 77.5709C137.084 77.892 137.885 78.5555 138.376 79.4325C138.868 80.3096 139.016 81.3377 138.791 82.3173C139.494 82.4255 140.169 82.6702 140.778 83.0377C141.274 82.6923 141.837 82.4537 142.43 82.337C143.023 82.2203 143.634 82.2281 144.224 82.3599C144.814 82.4917 145.37 82.7447 145.857 83.1026C146.344 83.4606 146.751 83.9158 147.052 84.4392C147.407 84.1942 147.817 84.04 148.246 83.9902C148.675 83.9403 149.11 83.9964 149.512 84.1533C149.914 84.3103 150.272 84.5634 150.553 84.8905C150.834 85.2175 151.031 85.6086 151.126 86.0292L118.491 86.0272Z" fill="#F1F2F2"/>
</svg>
