<svg viewBox="0 0 212 139" fill="none" xmlns="http://www.w3.org/2000/svg">
<g style="mix-blend-mode:screen">
<path style="mix-blend-mode:screen" d="M215.726 32.7838C195.2 31.9538 174.647 33.4974 154.476 37.3838L150.665 38.1034L146.897 38.9783C144.385 39.5709 141.844 40.1071 139.346 40.7421C134.393 42.1531 129.312 43.3808 124.443 45.1164L117.048 47.5716L109.78 50.3937C104.868 52.1575 100.225 54.4998 95.4267 56.6164C93.0134 57.6323 90.7553 58.9446 88.3702 60.1299L81.4125 63.7704C76.9387 66.4655 72.3802 69.1183 67.9487 71.9545L61.4567 76.4416C59.3115 77.9656 57.0676 79.3907 54.993 81.0275C50.759 84.1742 46.6804 87.5748 42.63 91.0036C26.4486 105.069 12.1853 121.199 0.206268 138.979C10.0889 119.57 22.4778 101.543 37.0553 85.3594C40.767 81.3238 44.5352 77.3024 48.5151 73.5066C50.4486 71.5453 52.5796 69.7815 54.6119 67.8624L60.8075 62.3452C65.0414 58.8176 69.4729 55.4593 73.8479 52.0305L80.6927 47.2894C82.9932 45.7372 85.2371 44.044 87.6363 42.647C92.4065 39.8249 97.092 36.6924 102.06 34.1807L109.455 30.2016L117.034 26.5893C122.058 24.0776 127.308 22.1162 132.558 19.9009C135.169 18.8708 137.822 17.9537 140.475 16.98L144.441 15.569L148.463 14.2849C170.052 7.29758 192.377 2.82784 214.992 0.96463L215.726 32.7838Z" fill="url(#paint0_linear)"/>
</g>
<defs>
<linearGradient id="paint0_linear" x1="11.5519" y1="42.7627" x2="197.893" y2="95.6418" gradientUnits="userSpaceOnUse">
<stop stop-color="#FDF600"/>
<stop offset="0.05" stop-color="#CDC800"/>
<stop offset="0.1" stop-color="#A39E00"/>
<stop offset="0.15" stop-color="#7B7800"/>
<stop offset="0.21" stop-color="#5A5700"/>
<stop offset="0.27" stop-color="#3E3C00"/>
<stop offset="0.35" stop-color="#272600"/>
<stop offset="0.43" stop-color="#151500"/>
<stop offset="0.53" stop-color="#090900"/>
<stop offset="0.67" stop-color="#020200"/>
<stop offset="1"/>
</linearGradient>
</defs>
</svg>
