<svg width="240" height="220" viewBox="0 0 212 139" fill="none" xmlns="http://www.w3.org/2000/svg">
<g style="mix-blend-mode:screen">
<path style="mix-blend-mode:screen" d="M216.399 32.7838C195.874 31.9538 175.321 33.4974 155.149 37.3838L151.338 38.1034L147.57 38.9783C145.058 39.5709 142.518 40.1071 140.02 40.7421C135.066 42.1531 129.986 43.3808 125.117 45.1164L117.721 47.5716L110.453 50.3937C105.542 52.1575 100.899 54.4998 96.1002 56.6164C93.6869 57.6323 91.4288 58.9446 89.0437 60.1299L82.086 63.7704C77.6122 66.4655 73.0537 69.1183 68.6222 71.9545L62.1302 76.4416C59.985 77.9656 57.7411 79.3907 55.6664 81.0275C51.4325 84.1742 47.3539 87.5748 43.3034 91.0036C27.1221 105.069 12.8588 121.199 0.879761 138.979C10.7624 119.57 23.1513 101.543 37.7288 85.3594C41.4405 81.3238 45.2087 77.3024 49.1886 73.5066C51.1221 71.5453 53.2531 69.7815 55.2854 67.8624L61.481 62.3452C65.7149 58.8176 70.1464 55.4593 74.5214 52.0305L81.3662 47.2894C83.6666 45.7372 85.9106 44.044 88.3098 42.647C93.08 39.8249 97.7655 36.6924 102.733 34.1807L110.129 30.2016L117.707 26.5893C122.731 24.0776 127.981 22.1162 133.232 19.9009C135.842 18.8708 138.496 17.9537 141.149 16.98L145.115 15.569L149.137 14.2849C170.726 7.29758 193.05 2.82784 215.666 0.96463L216.399 32.7838Z" fill="url(#paint0_linear)"/>
</g>
<defs>
<linearGradient id="paint0_linear" x1="12.2254" y1="42.7627" x2="198.566" y2="95.6418" gradientUnits="userSpaceOnUse">
<stop stop-color="#FDF600"/>
<stop offset="0.05" stop-color="#CDC800"/>
<stop offset="0.1" stop-color="#A39E00"/>
<stop offset="0.15" stop-color="#7B7800"/>
<stop offset="0.21" stop-color="#5A5700"/>
<stop offset="0.27" stop-color="#3E3C00"/>
<stop offset="0.35" stop-color="#272600"/>
<stop offset="0.43" stop-color="#151500"/>
<stop offset="0.53" stop-color="#090900"/>
<stop offset="0.67" stop-color="#020200"/>
<stop offset="1"/>
</linearGradient>
</defs>
</svg>

