<svg viewBox="0 0 262 93" fill="none" xmlns="http://www.w3.org/2000/svg">
<path d="M11.1999 93.2843C11.4116 92.3248 10.4801 91.5346 10.1273 90.6174C9.61921 89.3051 10.339 87.88 10.5789 86.483C10.856 84.339 10.2836 82.1716 8.98413 80.4438C7.69187 78.7408 6.18319 77.2134 4.49619 75.9002C5.97462 76.6921 7.53668 77.3168 9.15348 77.7628C9.7488 75.9285 9.7488 73.9529 9.15348 72.1186C8.78654 71.272 8.16557 70.5665 7.74218 69.748C6.17564 66.7425 7.22 62.4388 4.58087 60.3081L8.58896 61.9308C7.6481 57.9141 6.64137 53.9255 5.56878 49.9651L7.6575 50.5719C7.3329 44.0952 4.8349 44.9277 3.4236 33.7946C0.742132 43.3756 -1.55829 45.859 -2.8708 50.2192C-1.76736 50.0018 -0.695724 49.6463 0.318742 49.1609C0.39654 53.0146 -0.460572 56.8297 -2.17926 60.2799C-3.18128 62.2836 -4.49379 64.3014 -4.33855 66.5309H-1.81232L-4.42323 72.1751C-5.49582 74.4892 -6.54018 77.2971 -5.19944 79.4701C-5.00725 79.703 -4.88927 79.988 -4.86073 80.2886C-4.86073 80.726 -5.32646 81.0082 -5.6934 81.2481C-8.516 83.153 -9.24987 87.0051 -9.68738 90.4199L11.1999 93.2843Z" fill="#02284C"/>
<path d="M289.734 92.5505C288.482 83.051 286.016 73.7515 282.395 64.8798L287.674 66.9541C285.105 61.1406 282.315 55.4305 279.305 49.824L282.706 51.0516C282.494 47.9614 280.42 45.3086 279.672 42.289C279.149 40.1583 279.291 37.9147 278.867 35.7699C278.444 33.6251 277.174 31.3957 275.057 30.8454C275.382 30.4255 275.854 30.1451 276.379 30.0612C276.903 29.9774 277.439 30.0963 277.879 30.3939C279.389 27.092 276.242 23.6491 275.297 20.1356C274.436 16.8902 275.452 13.0803 273.603 10.2582C271.486 12.5865 272.672 15.8036 271.867 18.8515C271.452 20.1059 270.913 21.3159 270.258 22.4638C268.863 25.3037 268.048 28.3927 267.859 31.5509L270.004 31.0853C268.593 33.1877 268.508 35.8687 268.085 38.3663C267.436 42.1184 265.935 45.6715 263.696 48.7516C265.366 49.2433 267.121 49.3779 268.847 49.1467C266.165 51.0516 266.024 54.7909 265.643 58.135C265.602 59.3525 265.284 60.5446 264.712 61.6203C263.188 64.1038 259.278 65.0209 258.954 67.9136C261.34 68.5396 263.841 68.588 266.25 68.0547C264.695 72.8692 262.537 77.468 259.829 81.7419C258.167 84.4663 256.15 86.9575 253.831 89.1498L260.167 89.418C259.847 91.2981 260.24 93.2302 261.268 94.8364L289.734 92.5505Z" fill="#02284C"/>
<path d="M191.028 111.981C190.35 106.851 189.018 101.829 187.062 97.0377L189.885 98.1525C188.502 95.0105 186.992 91.925 185.354 88.8959L187.189 89.5591C187.076 87.88 185.947 86.4549 185.552 84.8322C185.27 83.6892 185.34 82.4757 185.114 81.3045C185.048 80.714 184.821 80.153 184.458 79.6827C184.094 79.2125 183.609 78.8509 183.054 78.6376C183.23 78.4156 183.483 78.2676 183.762 78.2232C184.042 78.1788 184.328 78.2411 184.564 78.3978C185.383 76.6057 183.675 74.7572 183.153 72.8523C182.631 70.9474 182.842 69.48 182.235 67.5468C181.713 69.4235 181.445 73.0781 181.008 74.7149C180.824 75.4063 179.229 77.3536 179.131 79.0468L180.288 78.7929C179.67 80.0184 179.314 81.3591 179.243 82.7297C178.898 84.7684 178.087 86.7 176.873 88.3739C177.788 88.6445 178.75 88.7166 179.695 88.5855C178.284 89.6156 178.129 91.6757 177.959 93.4395C177.939 94.0944 177.77 94.7362 177.465 95.3162C176.647 96.7273 174.53 97.1506 174.36 98.7169C175.649 99.0494 176.998 99.0736 178.298 98.7874C177.457 101.388 176.29 103.873 174.826 106.181C173.927 107.655 172.835 109.003 171.58 110.189L174.995 110.33C174.819 111.348 175.031 112.395 175.588 113.265L191.028 111.981Z" fill="#02284C"/>
<path d="M244.163 94.0745C244.382 92.6192 244.933 91.2337 245.772 90.0248C246.562 89.1482 247.175 88.1278 247.579 87.0193C247.688 85.7587 247.509 84.4897 247.057 83.3082C246.838 82.7133 246.78 82.0712 246.889 81.4468C246.998 80.8224 247.27 80.2379 247.677 79.7524C246.536 80.3562 245.201 80.483 243.966 80.1051C244.135 79.0468 245.123 78.3272 245.758 77.4665C247.169 75.5475 246.93 72.8947 247.353 70.5382C247.969 68.0308 249.004 65.6454 250.415 63.483C249.128 64.2482 247.676 64.6934 246.182 64.7811C247.916 61.777 249.187 58.5278 249.95 55.1437C249.156 55.6016 248.216 55.7379 247.325 55.5247C249.78 52.7026 250.034 48.9069 250.359 45.1394C250.782 40.2289 251.77 36.6731 252.292 31.9178C252.462 35.1068 253.379 40.0455 253.605 42.8393C253.831 45.6332 256.329 49.3725 256.865 50.7836C256.637 50.4725 256.34 50.2187 255.997 50.0424C255.654 49.866 255.275 49.772 254.889 49.7676C255.884 53.6899 257.085 57.5569 258.488 61.3523L256.498 61.5216C258.356 64.2786 259.456 67.4758 259.688 70.7922L257.853 70.9474C258.46 72.3584 257.613 74.08 258.248 75.4769C258.536 75.9817 258.877 76.4547 259.264 76.8879C261.268 79.583 260.676 84.042 263.498 85.7493C262.275 85.7846 261.056 85.5982 259.899 85.199C259.391 85.453 259.561 86.2291 259.899 86.7229C261.212 88.9242 263.329 90.7162 263.95 93.2138C263.997 93.323 264.021 93.4406 264.021 93.5595C264.021 93.6784 263.997 93.796 263.95 93.9052C263.823 94.1027 263.442 94.1168 263.371 93.9052L264.19 95.3162L244.163 94.0745Z" fill="#02284C"/>
<path d="M199.086 103.063C199.23 102.05 199.606 101.084 200.187 100.241C200.73 99.6401 201.151 98.9407 201.429 98.1807C201.507 97.3136 201.386 96.4403 201.076 95.6267C200.926 95.2186 200.885 94.7779 200.96 94.3492C201.034 93.9205 201.22 93.5191 201.5 93.1856C200.714 93.6003 199.795 93.6866 198.945 93.4255C199.072 92.6917 199.736 92.212 200.173 91.6193C201.161 90.2929 200.978 88.4727 201.274 86.85C201.691 85.1102 202.402 83.4543 203.377 81.9536C202.49 82.485 201.488 82.7947 200.455 82.8567C201.65 80.7943 202.525 78.5631 203.052 76.2389C202.506 76.5557 201.86 76.6516 201.246 76.507C202.939 74.5315 203.109 71.9634 203.334 69.3671C203.617 65.9947 204.28 63.5112 204.661 60.2799C204.774 62.467 205.409 65.9241 205.564 67.7867C205.72 69.6493 207.427 72.2738 207.808 73.2474C207.647 73.025 207.435 72.8448 207.189 72.722C206.943 72.5991 206.672 72.5374 206.397 72.5419C207.079 75.2364 207.904 77.8929 208.867 80.5003L207.455 80.6131C208.767 82.5098 209.551 84.7205 209.728 87.0193L208.472 87.1181C208.881 88.0917 208.302 89.277 208.74 90.2365C208.935 90.5846 209.167 90.9109 209.431 91.2101C210.843 93.0586 210.391 96.1206 212.367 97.3059C211.527 97.3289 210.69 97.1998 209.897 96.9248C209.544 97.0942 209.671 97.6304 209.897 97.9691C210.8 99.4789 212.254 100.721 212.72 102.428C212.752 102.504 212.769 102.585 212.769 102.668C212.769 102.75 212.752 102.832 212.72 102.908C212.635 103.049 212.367 103.063 212.324 102.908L212.889 103.881L199.086 103.063Z" fill="#02284C"/>
<path d="M232.591 33.3995C232.62 34.5262 232.448 35.6493 232.082 36.7155C231.786 37.421 231.334 38.0418 230.996 38.7191C229.989 40.5821 229.406 42.6442 229.288 44.7584C230.207 44.7489 231.106 44.4852 231.885 43.9965C230.347 56.3996 227.369 54.7063 226.028 59.518C228.695 58.8266 229.387 57.5002 231.476 56.7946C230.374 58.271 229.749 60.0479 229.683 61.8886C229.74 62.9297 229.698 63.9739 229.556 65.007C229.26 66.3051 228.385 67.3917 227.961 68.6475C227.439 70.1996 227.58 72.0481 226.55 73.2898C225.661 74.3058 223.939 75.0536 224.25 76.3659C225.834 76.4612 227.414 76.1092 228.808 75.35C225.28 81.742 221.653 88.4727 221.498 95.7819L248.058 94.3709C247.635 91.2525 245.236 88.7267 244.05 85.9046C242.512 82.2782 242.752 77.9463 240.55 74.6162C241.819 75.5105 243.346 75.9618 244.897 75.9003C243.274 74.6959 242.129 72.9566 241.665 70.9898C240.073 66.4141 238.846 61.7194 237.996 56.9499C238.669 57.625 239.485 58.1404 240.384 58.4579C241.283 58.7754 242.242 58.8869 243.189 58.7842C240.605 56.4512 238.633 53.52 237.445 50.2474L236.627 42.8676C237.779 43.6405 239.176 43.962 240.55 43.7707C238.447 42.6419 237.728 40.0032 237.304 37.6608C236.076 31.4663 235.328 25.2718 234.101 19.0914C233.691 21.7724 233.522 24.6087 233.226 26.6688C232.869 28.8963 232.657 31.1446 232.591 33.3995Z" fill="#02284C"/>
<path d="M193.074 71.0321C193.097 71.7434 192.921 72.4469 192.566 73.064C192.27 73.5014 191.818 73.8824 191.479 74.2916C190.529 75.3149 189.931 76.6152 189.772 78.0027C190.658 78.004 191.538 77.8463 192.369 77.537C190.83 85.1708 187.852 84.1266 186.512 87.0898C189.179 86.6665 189.856 85.8481 191.959 85.4107C191.459 85.7797 191.042 86.2489 190.733 86.7882C190.425 87.3276 190.232 87.9252 190.167 88.5432C190.224 89.1856 190.181 89.833 190.04 90.4623C189.744 91.2524 188.869 91.8733 188.445 92.7058C188.022 93.5383 188.064 94.8083 187.034 95.5279C186.004 96.2476 184.423 96.6144 184.733 97.4187C186.278 97.4832 187.821 97.273 189.292 96.7979C185.764 100.735 182.137 104.869 181.981 109.37L208.542 108.538C208.119 106.619 205.719 105.109 204.534 103.317C202.996 101.087 203.236 98.4206 201.034 96.4028C202.41 96.9731 203.892 97.2425 205.381 97.1929C203.955 96.6398 202.797 95.5582 202.149 94.1733C200.595 91.4469 199.363 88.5489 198.479 85.5377C200.058 86.4279 201.868 86.8213 203.673 86.6665C201.314 85.4686 199.328 83.6485 197.929 81.4033L197.111 76.8597C198.358 77.3446 199.701 77.533 201.034 77.4101C200.214 77.1153 199.484 76.6134 198.915 75.9533C198.346 75.2931 197.958 74.4971 197.788 73.6425C196.56 69.8327 195.812 66.0229 194.584 62.2131C194.175 63.864 194.006 65.6137 193.709 66.8695C193.353 68.2311 193.14 69.6263 193.074 71.0321Z" fill="#02284C"/>
<path d="M49.4038 71.5683C49.4216 72.2345 49.3212 72.8985 49.1074 73.5297C48.9381 73.953 48.6699 74.3199 48.4582 74.715C47.8597 75.8203 47.5128 77.0441 47.4421 78.2991C47.9867 78.2934 48.5192 78.1371 48.9804 77.8475C48.0631 85.2132 46.2989 84.1972 45.5086 87.0617C47.0893 86.6525 47.4985 85.8623 48.7405 85.4531C48.1074 86.3204 47.7486 87.3574 47.7102 88.4304C47.7454 89.0474 47.7218 89.6663 47.6397 90.2789C47.4703 91.0408 46.9481 91.6899 46.6941 92.4378C46.4401 93.1856 46.4683 94.4556 45.8191 95.2599C45.1699 96.0642 44.2667 96.3041 44.4078 97.0943C45.35 97.1498 46.2889 96.9395 47.1175 96.4875C45.0288 100.283 42.8836 104.276 42.7848 108.608L58.5349 107.804C58.2808 105.956 56.8837 104.488 56.1498 102.781C55.2466 100.622 55.3877 98.0679 54.0752 96.1206C54.8302 96.6489 55.737 96.9164 56.6579 96.8826C55.6977 96.1548 55.0274 95.1096 54.7667 93.9335C53.8235 91.2201 53.0968 88.4364 52.5933 85.6083C52.9919 86.0083 53.4754 86.3137 54.0079 86.5018C54.5405 86.6898 55.1085 86.7558 55.6699 86.6948C54.1413 85.3077 52.9739 83.5689 52.2687 81.6291L51.7889 77.2549C52.4736 77.7117 53.3019 77.9024 54.1175 77.7911C53.5524 77.3621 53.0869 76.8158 52.7531 76.1898C52.4193 75.5638 52.2252 74.8729 52.184 74.1647C51.4502 70.496 51.0127 66.8131 50.2788 63.1443C50.0389 64.7388 49.9401 66.418 49.7566 67.6315C49.5555 68.935 49.4376 70.2499 49.4038 71.5683Z" fill="#02284C"/>
<path d="M4.3551 112.559C5.60272 103.06 8.06438 93.7608 11.6798 84.8885L6.40149 87.0192C8.97005 81.2057 11.7597 75.4956 14.7705 69.8891L11.3693 71.1167C11.581 68.0265 13.6556 65.3737 14.4036 62.3541C14.9257 60.2234 14.7846 57.9798 15.208 55.835C15.6314 53.6902 16.9016 51.4608 19.0185 50.9105C18.6936 50.4906 18.2209 50.2102 17.6966 50.1263C17.1723 50.0425 16.6357 50.1614 16.1959 50.4589C14.6858 47.1571 17.833 43.7142 18.7786 40.2006C19.6395 36.9552 18.6234 33.1454 20.4722 30.3233C22.5891 32.6515 21.4036 35.8687 22.2081 38.9166C22.6234 40.171 23.1623 41.381 23.8169 42.5289C25.2117 45.3688 26.0273 48.4578 26.2162 51.616L24.071 51.1503C25.4823 53.2528 25.567 55.9338 25.9903 58.4314C26.6387 62.1835 28.1403 65.7366 30.3795 68.8167C28.7092 69.3084 26.954 69.443 25.2282 69.2118C27.9097 71.1167 28.0508 74.856 28.4319 78.2002C28.4729 79.4177 28.7915 80.6097 29.3633 81.6855C30.8876 84.1689 34.7969 85.0861 35.1215 87.9787C32.7351 88.6048 30.2338 88.6531 27.825 88.1198C29.3806 92.9343 31.5381 97.5331 34.2464 101.807C35.9083 104.531 37.9253 107.023 40.2445 109.215L33.9077 109.483C34.2281 111.363 33.8356 113.295 32.8069 114.902L4.3551 112.559Z" fill="#02284C"/>
<path d="M47.1034 109.271C46.8843 107.816 46.3339 106.431 45.4945 105.222C44.7049 104.345 44.0916 103.325 43.688 102.216C43.5787 100.956 43.7573 99.6867 44.2102 98.5052C44.4279 97.9125 44.4851 97.2728 44.3761 96.6509C44.267 96.0289 43.9956 95.4468 43.5892 94.9635C44.733 95.5626 46.0676 95.6843 47.3009 95.3021C47.1316 94.2438 46.1437 93.5242 45.5086 92.6635C44.0973 90.7444 44.3372 88.0917 43.9138 85.7352C43.2981 83.2277 42.2626 80.8423 40.8513 78.68C42.1384 79.4452 43.5903 79.8904 45.0852 79.9781C43.3503 76.974 42.0799 73.7247 41.317 70.3407C42.1111 70.7986 43.0505 70.9349 43.942 70.7217C41.4864 67.8996 41.2323 64.1038 40.9077 60.3363C40.4844 55.4259 39.4964 51.87 38.9743 47.1148C38.8049 50.3038 37.8876 55.2424 37.6618 58.0363C37.4359 60.8302 35.0085 64.4425 34.4299 65.8535C34.6577 65.5425 34.9549 65.2887 35.2978 65.1124C35.6408 64.936 36.0201 64.8419 36.4057 64.8376C35.4112 68.7599 34.2099 72.6268 32.8069 76.4223L34.7968 76.5916C32.9387 79.3486 31.8387 82.5458 31.6073 85.8622L33.442 86.0174C32.8351 87.4285 33.6819 89.1499 33.0468 90.5469C32.7586 91.0516 32.418 91.5246 32.0307 91.9579C30.0407 94.653 30.6194 99.1119 27.7968 100.819C29.0198 100.855 30.239 100.668 31.3956 100.269C31.9036 100.523 31.7343 101.299 31.3956 101.793C30.0831 103.994 27.9661 105.786 27.3451 108.284C27.2982 108.393 27.2739 108.511 27.2739 108.629C27.2739 108.748 27.2982 108.866 27.3451 108.975C27.4722 109.173 27.8532 109.187 27.9238 108.975L27.1052 110.386L47.1034 109.271Z" fill="#02284C"/>
<path d="M217.066 54.9038C217.044 55.7235 217.168 56.5407 217.433 57.3167C217.645 57.8247 217.97 58.2762 218.224 58.7278C218.957 60.086 219.381 61.5892 219.466 63.1302C218.795 63.1205 218.14 62.9251 217.574 62.5658C218.689 71.5965 220.863 70.3689 221.808 73.8542C219.861 73.3603 219.367 72.4431 217.843 71.8787C218.648 72.9531 219.106 74.2479 219.155 75.5898C219.111 76.348 219.139 77.1087 219.24 77.8616C219.451 78.807 220.101 79.5972 220.411 80.5143C220.792 81.6432 220.693 82.9978 221.484 83.9008C222.274 84.8039 223.389 85.1849 223.163 86.1444C222.006 86.2162 220.852 85.9619 219.833 85.4106C222.401 90.0671 225.04 94.9634 225.153 100.283L205.804 99.2954C206.115 97.0236 207.836 95.2315 208.726 93.1291C209.84 90.4904 209.671 87.3297 211.266 84.9591C210.339 85.6113 209.223 85.9387 208.09 85.8904C209.275 85.0119 210.11 83.7421 210.447 82.3064C211.605 78.9767 212.497 75.5607 213.115 72.0904C212.625 72.5833 212.031 72.9596 211.376 73.1917C210.722 73.4237 210.023 73.5055 209.332 73.4309C211.233 71.7353 212.687 69.5982 213.566 67.2081L214.159 61.8321C213.327 62.3804 212.325 62.6108 211.336 62.4811C212.875 61.6627 213.369 59.7437 213.707 58.0363C214.611 53.521 215.119 49.0197 216.036 44.5044C216.332 46.4657 216.459 48.5259 216.685 50.0216C216.917 51.6391 217.044 53.2699 217.066 54.9038Z" fill="#02284C"/>
</svg>
