<svg width="353" height="350" viewBox="0 0 253 120" fill="none" xmlns="http://www.w3.org/2000/svg">
<path d="M19.8006 77.9604L33.2502 73.3745L37.1454 75.6746L42.0709 73.3745L50.1858 75.6746L56.8895 68.7886H66.4158L69.5066 65.4727L74.6155 59.8567L82.9139 57.98L86.795 54.7205L100.4 53.8598L105.339 55.0309L109.249 51.7432L116.136 45.5769L120.864 46.8045L126.509 44.1799L132.338 40.2149L135.57 34.1051H138.971L149.287 21.8713L172.376 20.4602L198.725 3.76752L220.431 12.1209L228.645 4.93867L252.679 0V94.5403L146.267 118.5L70.5227 119.713L0 85.1427L12.7864 78.3132L19.8006 77.9604Z" fill="#A65574"/>
</svg>
