<svg viewBox="0 0 236 121" fill="none" xmlns="http://www.w3.org/2000/svg">
<path d="M20.4046 78.2822L33.8543 73.6963L37.7495 75.9963L42.6749 73.6963L50.7899 75.9963L57.4936 69.1104H67.0198L70.1106 65.7944L75.2195 60.1785L83.518 58.3018L87.399 55.0423L101.004 54.1815L105.944 55.3527L109.853 52.065L116.74 45.8986L121.468 47.1263L127.113 44.5017L132.942 40.5367L136.174 34.4268H139.575L149.891 22.193L172.98 20.782L199.329 4.0893L221.035 12.4427L229.249 5.26045L253.283 0.321777V94.8621L146.871 118.822L71.1267 120.035L0.604034 85.4645L13.3904 78.635L20.4046 78.2822Z" fill="url(#paint0_linear)"/>
<defs>
<linearGradient id="paint0_linear" x1="126.944" y1="120.035" x2="126.944" y2="0.321777" gradientUnits="userSpaceOnUse">
<stop stop-color="#0E4764"/>
<stop offset="1" stop-color="#1B8EB8"/>
</linearGradient>
</defs>
</svg>
