<svg viewBox="0 0 229 121" fill="none" xmlns="http://www.w3.org/2000/svg">
<path d="M228.771 10.4864L225.948 8.36982L224.368 10.4864H221.545L220.67 12.7864H218.553L214.997 17.0195H212.569L211.341 19.8416H209.055V22.4944H207.644L205.908 24.611H203.791L201.857 27.7858H200.277L197.99 30.4386H195.633L194.222 32.0331H192.486L190.906 35.2079H189.141L186.855 39.0883H183.129L180.688 41.7411C180.688 41.7411 178.613 41.219 178.331 41.7411C178.049 42.2632 175.932 45.6215 175.932 45.6215L170.992 45.9742C170.992 45.9742 169.383 48.627 168.24 48.4436C167.097 48.2601 165.163 47.9215 165.163 47.9215L159.871 50.3908H158.149L156.879 52.6908L153.182 52.8742L151.601 55.8798C149.181 56.9833 146.825 58.2223 144.544 59.5908C143.839 60.2964 140.819 63.6547 140.819 63.6547H136.077C135.187 64.375 134.243 65.026 133.254 65.6019C131.761 66.0598 130.223 66.3578 128.667 66.4909H124.786L122.5 69.1437H106.976L104.153 67.7326L100.808 68.0854L98.8747 65.4467L96.4049 65.0939L94.5138 63.3019H92.6085L89.9694 61.4676L86.2718 62.1731L82.2213 59.8871L79.3987 60.5927L76.2233 58.7583H74.5862L71.9471 57.2485L68.6164 58.7442L64.8906 54.7651L59.951 55.4706L55.9147 51.054L53.0921 51.943L51.5114 47.5405L45.9509 47.1877L40.221 42.4325L35.9871 42.6159L33.8137 38.03L31.5697 38.7356L30.5113 37.6773L28.0415 38.7356L24.104 34.8552L22.3963 35.5607L20.11 30.8055L18.5293 31.3417L16.7652 29.5779L14.4083 29.7613L11.4728 25.5282H7.01311L5.10786 22.311L3.69656 21.7889L0.803396 22.3251V19.0938H-3.00712L-6.3519 13.4496L-19.7875 8.34157L-27.6908 0.0869751V127.363H228.771V10.4864Z" fill="#0B5D77"/>
</svg>
