<svg viewBox="0 0 262 113" fill="none" xmlns="http://www.w3.org/2000/svg">
<path d="M-29.1273 7.43386L-27.1091 6.89765V3.80745L-25.9518 0.985352L-24.8792 4.20254V6.79887L-23.8913 9.2682L-22.5929 7.68784L-21.5345 3.58168L-20.7865 6.92586L-20.4195 10.8204H-17.9215L-17.0606 9.15534V8.39336L-16.2562 5.67005L-15.8893 8.88724L-16.4397 9.63509L-15.8893 10.8062L-14.8308 10.0584V8.94369L-14.3933 7.0811L-13.8993 9.36699V10.2983L-13.1513 11.4694L-12.3469 12.7112V13.8541L-11.5707 13.5719V12.4007L-10.9497 11.8504L-11.1755 10.9756L-10.7239 9.80441L-10.1312 11.2155L-10.4699 11.6247L-10.2017 12.7958V13.3744L-9.79244 14.2069L-9.46784 13.5437L-9.53841 13.0781L-9.17147 12.2455L-9.00211 13.3179L-9.17147 13.713L-8.91743 14.602L-8.46582 14.1222L-8.18356 12.8664L-8.04243 14.094L-7.60493 15.0535L-7.42146 15.7167L-7.05452 14.9547L-6.6029 13.9106L-6.41943 15.7167V16.5492L-6.17951 17.0008L-5.36096 18.1437L-5.20571 18.7646L-4.68353 18.4259L-4.52829 17.2265L-4.03433 16.2952L-3.87909 17.8051V18.9198C-3.87909 18.9198 -3.44159 19.6676 -3.41336 19.7523C-3.38514 19.837 -3.31457 20.74 -3.31457 20.74L-2.79239 20.0345V19.4137L-2.63715 18.4259L-2.42545 19.4137L-2.17142 20.091L-2.32666 21.1069L-1.64923 22.4333L-1.33875 21.6572L-1.49399 20.7259L-1.15528 19.0186L-0.717777 20.7259V21.3468L-0.435516 22.6167L-0.252048 23.8161C-0.0253983 23.4558 0.181885 23.0838 0.368923 22.7014C0.368923 22.6026 0.21368 21.8971 0.21368 21.8971L0.764088 20.6977L0.975784 22.7438V23.675C0.975784 23.675 1.25805 24.6346 1.28627 24.818C1.3145 25.0014 2.37297 24.818 2.37297 24.818V23.4916L2.73991 22.5039L2.9516 23.9149V24.9591L3.38911 26.2008L3.93951 25.5517V24.0419L4.37702 26.2008V27.3437L4.6875 28.3032L5.18146 27.1886L5.61897 25.7069V27.0333L6.01413 27.9929V28.6137L6.94558 28.3032V27.1603L7.19962 25.8339L7.66534 27.245V28.388L8.15931 30.3634L8.75205 29.7708L8.93552 29.291L8.62503 28.6137L9.28834 27.2732L9.65528 28.8818C9.65528 28.8818 9.42947 29.4744 9.42947 29.5168C9.42947 29.5591 9.72585 30.4198 9.72585 30.4198L10.2198 31.464L10.0928 31.7603L10.4033 31.3088V30.6597L10.5726 30.1376L10.7843 30.7444V31.2665L10.996 32.0284H11.998L12.5202 31.2947L13.0989 29.7567L13.621 31.6051L13.2259 32.6634L13.8327 34.5401L14.4537 33.9051C14.5672 33.4434 14.6241 32.9695 14.6231 32.4941L15.4981 29.4462V34.3002L15.8509 35.5419L16.5848 34.7518L16.8811 33.6935L17.3186 31.5205L17.7279 33.8769L17.4033 35.288L17.7279 37.1647H19.1392V36.1346L19.2803 34.2579C19.4416 33.7772 19.6301 33.3061 19.8449 32.8468V38.3217C19.8449 38.3217 20.6917 39.4082 20.6917 39.2953C20.6917 39.1825 21.2562 37.8843 21.2562 37.8843L21.7783 36.0923L22.1312 38.5052V40.2125L22.5546 41.3555C22.5546 41.3555 23.3026 40.1843 23.3308 40.0996C23.359 40.015 23.0344 39.0696 23.1191 38.9285C23.2038 38.7874 23.8812 36.6708 23.8812 36.6708L24.4739 39.2813L23.8812 40.4242L24.4034 42.1034L25.2502 43.3027C25.6955 42.902 26.1195 42.4781 26.5203 42.0328C26.3996 41.5724 26.3427 41.0976 26.351 40.6217C26.4356 40.2972 26.8167 38.4205 26.8167 38.4205L27.1977 41.5389C27.0569 41.7798 26.9747 42.0505 26.9578 42.3291C26.9578 42.6536 27.1977 44.7138 27.1977 44.7138C27.1977 44.7138 28.1998 44.1494 28.1998 43.98C28.1998 43.8107 28.2844 42.188 28.2844 42.0751C28.2844 41.9622 28.6655 40.6641 28.6655 40.6641L29.0465 42.3714V43.5144L29.4558 44.9255V46.3365L30.2179 48.0439L31.2482 46.6328V44.2199L32.6595 40.6641C32.7442 40.4524 32.9841 43.8107 33.0123 43.8954C33.0405 43.98 32.4901 45.5745 32.4901 45.6592C32.4901 45.7438 32.9841 47.7193 32.9841 47.7193L32.8994 48.8623L33.9579 49.8641L35.3692 48.4531L35.0587 46.2095L35.722 42.4561L36.4277 46.915L36.0748 48.9892C36.272 49.9481 36.404 50.9193 36.47 51.896C36.4011 52.984 36.4436 54.0762 36.597 55.1556L37.7402 57.9777L38.3611 56.2985L38.1353 54.577L39.0103 51.5292V49.596L39.6736 52.3335V53.9702L40.0688 57.0181V57.9917L41.0849 57.3285L41.1696 55.0427L42.1434 52.5733V51.2893L42.8491 55.8752C42.8047 56.5047 42.8047 57.1365 42.8491 57.766C42.9337 58.0341 43.2442 59.4874 43.2442 59.4874L43.8229 58.6126L44.3451 56.0163L45.093 54.4359V56.4678L44.8249 58.8102L45.093 60.447L46.2362 61.0678L47.1112 59.7838L46.8854 57.893L47.6757 56.0022L48.2543 59.9672L48.96 62.3096L51.3451 63.4948C51.3451 63.4948 52.4883 60.6727 52.4883 60.5034C52.4883 60.3341 52.7 57.1592 52.7 57.1592L53.6455 56.0163V59.1911L53.1233 60.6022L53.6455 62.6764L53.208 63.8194L54.1395 66.2464L53.3491 66.9519L54.45 69.1532L55.7342 66.8108L55.4661 65.4844C55.4661 65.4844 56.4822 63.9887 56.3411 63.7629C56.1937 63.364 56.0804 62.9534 56.0024 62.5353C56.0024 62.5353 56.9903 57.5402 57.0467 57.766L57.9782 62.1826C57.9293 62.4117 57.8535 62.6343 57.7524 62.8458C57.5972 63.1562 58.6274 65.0047 58.6274 65.0047L58.1899 65.936L58.6274 67.6998C58.6274 67.6998 59.9117 65.1458 59.8552 65.0047C59.6398 64.3243 59.4655 63.6317 59.3331 62.9304L60.1657 60.193L60.9561 63.1985L61.4782 64.4685V66.5427L62.8895 67.6433L64.6113 64.2991V61.477L64.9641 59.939C64.9641 59.939 65.4863 61.5335 65.5428 61.7451C65.513 62.0923 65.437 62.434 65.317 62.7611L66.3754 67.3893L67.4339 65.4985C67.3417 65.0332 67.285 64.5615 67.2646 64.0875C67.2646 63.8194 68.0126 61.1384 68.0126 61.1384L68.944 64.3556L68.5065 65.1881L69.3815 68.0102L72.2041 69.0967L73.4884 66.1899V65.0893L73.9259 63.4525L74.8009 65.9218C74.8009 65.9218 74.4057 66.3169 74.4481 66.458C74.4904 66.5991 75.1114 69.1108 75.1114 69.1108L76.6921 68.5887V66.4298C76.6921 66.4298 77.2707 64.8495 77.3554 65.1034L78.6396 69.1108V70.0421L80.5308 70.3525C80.772 69.4652 80.9652 68.5656 81.1094 67.6574C81.1094 67.3893 81.8151 66.3311 81.8151 66.2464C81.8151 66.1617 81.2365 64.3133 81.2365 64.3133L81.8151 60.828L82.6054 64.2709V70.0986C82.6054 70.0986 84.0167 67.982 84.0167 67.855C84.0167 67.728 84.2849 65.5691 84.2849 65.5691L85.0328 68.6593L86.2183 71.3967L86.8393 69.3648L86.5288 68.3912C86.6653 67.7511 86.8396 67.1197 87.051 66.5004L88.1095 69.5482L88.7304 72.0176H90.3676L90.6639 71.0016L90.4099 68.6734L91.2426 66.5992L91.8635 68.6311V69.647L92.174 70.6207V72.3845L93.7547 73.7955C93.5992 73.4012 93.4949 72.9887 93.4442 72.5679C93.4442 72.2998 94.0228 70.7194 94.0228 70.5783C94.0228 70.4372 94.3333 68.1231 94.3333 68.1231L94.9543 70.8323V72.5538L95.6599 74.0918L96.0974 72.9912V71.1004L97.3253 68.1231L97.7204 71.5802L97.5934 72.5115L98.3837 74.4587L99.795 76.1802L100.938 75.1642L100.543 74.5434C100.543 74.5434 101.827 70.1832 101.954 70.3102C102.081 70.4372 102.66 73.3581 102.702 73.6685C102.644 74.3659 102.54 75.0588 102.392 75.7428L102.97 76.928L105.793 78.4238V76.3072L106.767 71.9894L108.178 74.7127L107.473 77.6194C107.473 77.6194 109.237 82.1207 109.237 81.8526C109.237 81.5845 110.916 75.5029 110.916 75.5029V72.1587L111.975 69.0685L113.118 73.7391L112.243 74.9808L113.132 78.6919V80.7238L114.458 83.6305L113.837 85.1262L115.333 89.6275L116.477 86.5937C116.477 86.5937 115.954 84.6888 115.954 84.4207C115.954 84.1526 117.281 81.9514 117.013 81.6833C116.745 81.4152 116.223 80.8084 116.491 80.4557C116.759 80.1029 118.438 73.3158 118.438 73.3158L119.765 78.7906L118.932 80.2017L119.765 83.0238L120.767 84.8723L121.868 81.3728L122.418 78.5507L123.392 81.4575V84.0115H124.888L126.031 81.9373L125.721 80.6109C125.721 80.4415 126.299 78.5789 126.384 79.1998C126.469 79.8207 127.005 82.2477 127.005 82.2477L126.737 83.0379L127.005 85.1121L128.416 87.4968C128.605 86.9828 128.751 86.4542 128.854 85.9164C128.854 85.7471 128.416 84.9005 128.416 84.9005C128.416 84.9005 129.037 80.9778 129.08 81.2458L129.616 84.463L129.446 85.479C129.446 85.479 130.067 86.8901 130.11 87.0735C130.614 87.3676 131.143 87.6178 131.69 87.8214L132.311 85.352L132.622 83.1085L133.017 84.3925V85.9305L133.497 87.9201L134.118 89.4582L134.428 88.8796L134.203 87.7367L135.303 84.3925L137.336 90.0367L136.715 90.5165L137.336 91.8428L138.309 90.6999C138.249 90.2244 138.16 89.7531 138.041 89.2888C137.971 89.2888 138.309 85.9164 138.309 85.9164L139.1 89.4864L138.832 90.8128L139.368 92.4496L140.61 92.8024L140.511 91.7017L140.991 89.1477L141.541 91.222V93.3386L143.461 94.933L143.235 93.7477L142.882 92.6048L143.461 87.8919L144.703 94.3263V95.6527L145.803 93.141L146.156 90.714L147.13 95.6527L147.963 94.0723L148.4 91.3772L148.668 94.1993L149.558 97.5999L151.279 96.3723C151.315 95.2055 151.419 94.0418 151.59 92.887C151.717 92.887 152.422 96.7251 152.422 96.7251L153.65 112.091H-36.0144L-29.1273 7.43386Z" fill="#0E4764"/>
<path d="M292.706 12.9935L289.714 12.4149V9.11309L287.992 6.06522L286.411 9.50818V12.3303L285 14.9831L283.081 13.2898L281.514 8.90139L280.413 12.4714L279.863 16.7045H276.151L274.867 14.9125V14.0376L273.667 11.1309L273.117 14.5738L273.949 15.364L273.117 16.6198L271.55 15.8296V14.6444L270.901 12.6548L270.167 15.0959V16.0837L269.066 17.3395L267.867 18.6659V19.8935L266.724 19.5972V18.3413L265.806 17.7487L266.145 16.8033L265.482 15.5615L264.607 17.0855L265.115 17.5229L264.72 18.7646L264.818 19.3855L264.226 20.2886L263.746 19.569L263.859 19.0751L263.308 18.172L263.054 19.3149L263.308 19.7242L262.941 20.6696L262.278 20.1616L261.869 18.7505L261.657 20.0628L261.008 21.0929L260.726 21.8125L260.175 20.9941L259.512 19.8794L259.23 21.7984V22.7015L258.891 23.1812L257.663 24.3947L257.437 25.0579L256.661 24.691L256.435 23.407L255.701 22.4193L255.475 24.042V25.326C255.475 25.326 254.826 26.1162 254.784 26.215C254.742 26.3138 254.643 27.2733 254.643 27.2733L253.867 26.5113V25.8481L253.641 24.7898L253.316 25.8481L252.949 26.5819L253.175 27.6684L252.159 29.0794L251.693 28.2469L251.919 27.2591L251.411 25.4389L250.762 27.2591V27.9223L250.352 29.3334L250.07 30.6174C249.741 30.2412 249.435 29.8454 249.153 29.4322C249.153 29.3334 249.379 28.5714 249.379 28.5714L248.546 27.2874L248.221 29.4745V30.4622C248.221 30.4622 247.812 31.4923 247.756 31.6899C247.699 31.8874 246.147 31.6899 246.147 31.6899V30.2788L245.596 29.2205L245.272 30.6316V31.7463L244.623 33.0868L243.79 32.3954V30.7726L243.141 33.0868V34.3144L242.675 35.3445L241.941 34.1592L241.292 32.5647V33.9757L240.699 35.0058V35.669L239.288 35.3445V34.1169L238.921 32.7058L238.229 34.2297V35.4573L237.496 37.5739L236.621 36.939L236.338 36.431L236.804 35.7113L235.816 34.3003L235.266 36.0217C235.266 36.0217 235.604 36.6567 235.604 36.7132C235.604 36.7696 235.153 37.6727 235.153 37.6727L234.405 38.7874L234.588 39.0979L234.123 38.6181V37.9267L233.883 37.3623L233.572 38.0113L233.671 38.5758L233.36 39.3942H231.879L231.088 38.6181L230.241 36.9672L229.451 38.9426L230.044 40.0715L229.141 42.0751L228.223 41.3979C228.026 41.2568 227.955 39.888 227.955 39.888L226.643 36.6285V41.8212L226.12 43.1476L225.034 42.3009L224.582 41.1721L223.905 38.731L223.298 41.2426C223.298 41.2426 223.778 42.6537 223.778 42.8089C223.778 42.9641 223.298 44.8267 223.298 44.8267H221.209V43.7261L220.997 41.7083C220.751 41.2201 220.473 40.7487 220.165 40.2972V46.139C220.165 46.139 218.895 47.296 218.895 47.1831C218.642 46.6985 218.364 46.2275 218.062 45.7721L217.272 43.8531L216.749 46.4353V48.2555L216.114 49.469C216.114 49.469 214.999 48.2132 214.957 48.058C214.915 47.9028 215.395 46.9574 215.268 46.8022C215.141 46.6469 214.139 44.3752 214.139 44.3752L213.264 47.1973L214.139 48.4249L213.348 50.2169L212.078 51.5009C212.078 51.5009 210.201 50.2451 210.201 50.0899C210.201 49.9347 210.596 48.9893 210.469 48.6788C210.342 48.3684 209.778 46.3224 209.778 46.3224L209.213 49.6525C209.413 49.8927 209.536 50.1878 209.566 50.4991C209.566 50.8519 209.213 53.039 209.213 53.039C209.213 53.039 207.731 52.4463 207.731 52.2488C207.731 52.0512 207.604 50.3298 207.604 50.2028C207.604 50.0758 207.04 48.6365 207.04 48.6365L206.475 50.4568V51.6844L205.868 53.2507L205.953 54.8169L204.824 56.6372L203.3 55.0991V52.5592L201.169 48.7494C200.929 49.8908 200.754 51.0451 200.646 52.2065C200.646 52.3052 201.437 53.9985 201.437 54.0973C201.437 54.1961 200.689 56.2985 200.689 56.2985L200.816 57.5261L199.249 58.5985L197.09 57.0887L197.542 54.6899L196.554 50.6825L195.509 55.4378L196.032 57.6531C195.738 58.6721 195.54 59.716 195.439 60.7715C195.538 61.9368 195.471 63.1102 195.241 64.2568L193.534 67.2342L192.616 65.4421L192.941 63.6078L191.628 60.3482V58.274L190.64 61.1949V62.9446L190.175 66.2464V67.2906L188.665 66.585L188.538 64.1298L187.126 61.4912V60.0801L186.082 64.9906C186.148 65.6662 186.148 66.3468 186.082 67.0225C185.955 67.3047 185.489 68.8569 185.489 68.8569L184.642 67.9114L183.852 65.0893L182.737 63.3961V65.5691L183.132 68.0667L182.737 69.8164L181.029 70.4796L179.717 69.0685L180.041 67.0366L178.87 65.0047L178.023 69.2378L176.979 71.7354L173.451 73.0053C173.451 73.0053 171.743 69.9433 171.743 69.8022C171.743 69.6611 171.433 66.2182 171.433 66.2182L170.021 64.9906V68.3912L170.812 69.9433L170.021 72.1587L170.67 73.3863L168.864 75.8556C168.864 75.8556 165.703 73.6262 165.9 73.3863C166.113 72.9685 166.279 72.5284 166.394 72.074C166.394 72.074 164.983 66.7403 164.856 66.9661L163.445 71.6789C163.517 71.9291 163.626 72.1669 163.769 72.3845C163.995 72.709 162.457 74.6986 162.457 74.6986L163.106 75.6863L162.457 77.5771C161.792 76.6719 161.18 75.7297 160.622 74.755C160.943 74.0385 161.207 73.2977 161.412 72.5397L160.17 69.6188L158.999 72.8219L158.223 74.2329V76.4483L156.176 77.6336L153.622 74.0495V71.0722L153.1 69.4213C153.1 69.4213 152.309 71.1145 152.253 71.3544C152.296 71.7329 152.406 72.1007 152.578 72.4409L151.011 77.3937L149.445 75.3618C149.589 74.8555 149.679 74.3351 149.713 73.8096C149.713 73.5274 148.598 70.6489 148.598 70.6489L147.186 74.0918L147.836 74.9808L146.523 78.071L142.402 79.2281L140.638 76.0391V74.8538L139.989 73.1041L138.676 75.7428C138.676 75.7428 139.269 76.1661 139.198 76.3072C139.128 76.4483 138.211 79.1293 138.211 79.1293L135.854 78.5649V76.2507C135.854 76.2507 135.007 74.5575 134.866 74.8397L132.975 79.0728V80.0606L130.152 80.3851C129.804 79.4655 129.521 78.5224 129.305 77.563C129.305 77.2808 128.261 76.152 128.261 76.0109C128.261 75.8698 129.108 73.9366 129.108 73.9366L128.261 70.2114L127.09 73.8943V80.117C127.09 80.117 124.93 77.8593 124.93 77.7182C124.93 77.5771 124.535 75.263 124.535 75.263L123.42 78.5649L121.656 81.4857L120.739 79.3127L121.19 78.2685C120.98 77.5719 120.715 76.8925 120.4 76.2366L118.833 79.4962L117.916 82.1348H115.489L115.051 81.0483L115.432 78.5508L114.19 76.3354L113.273 78.5084V79.5949L112.821 80.6391V82.5299L110.464 84.0397C110.688 83.6257 110.84 83.1775 110.916 82.7134C110.916 82.4311 110.069 80.7379 110.069 80.5968C110.069 80.4557 109.618 77.9722 109.618 77.9722L108.7 80.879V82.7134L107.656 84.3643L107.007 83.179V81.1471L105.172 77.9581L104.579 81.6551L104.777 82.6428L103.605 84.717L101.573 86.5514L99.8655 85.4649L100.458 84.8017C99.8792 83.2816 99.21 81.7973 98.4542 80.3569C98.3272 80.5403 97.4099 83.6164 97.3393 83.941C97.4249 84.6912 97.576 85.4324 97.7909 86.1563L96.9441 87.4263L92.7102 89.0348V86.7771L91.2989 82.163L89.0691 84.9851L90.1134 88.1035C90.1134 88.1035 87.5025 92.9152 87.5025 92.633C87.5025 92.3508 85.0186 85.8459 85.0186 85.8459V82.2618L83.4097 78.9458L81.7021 83.941L83.0146 85.2673L81.7021 89.2324V91.4054L79.7404 94.4674L80.6577 96.076L78.4279 100.888L76.7202 97.6422C77.0267 96.8862 77.2905 96.1136 77.5105 95.3281C77.5105 95.0459 75.5488 92.6895 75.944 92.4072C76.3391 92.125 77.1154 91.4618 76.7343 91.0809C76.3533 90.6999 73.9117 83.4471 73.9117 83.4471L71.95 89.2888L73.1919 90.6999L71.95 93.776L70.5387 95.7514L68.9157 91.998L68.0971 88.9502L66.6858 92.0686V94.806H64.456L62.7483 92.5907L63.1999 91.1796C63.1999 90.9962 62.3532 89.0066 62.212 89.6275C62.0709 90.2483 61.2947 92.887 61.2947 92.887L61.6898 93.7336L61.2947 95.949L59.206 98.4889C58.9301 97.949 58.7125 97.3814 58.5567 96.7956C58.5567 96.6122 59.206 95.7091 59.206 95.7091C59.206 95.7091 58.2886 91.4759 58.218 91.8005L57.3713 95.2717L57.6394 96.3582C57.6394 96.3582 56.7221 97.9103 56.6515 98.0514C55.885 98.3726 55.0976 98.6413 54.2946 98.8557L53.3773 96.2171L52.9257 93.8183L52.3329 95.2293V96.8802L51.6132 98.9968L50.6958 100.648L50.2442 100.041L50.5688 98.8134L48.9035 95.1729L45.8974 101.255L46.8147 101.777L45.8974 103.188L44.4861 101.96C44.5712 101.423 44.7035 100.894 44.8813 100.38C44.9942 100.38 44.4861 96.7674 44.4861 96.7674L43.2583 100.605L43.6534 102.016L42.8631 103.766L41.0143 104.147L41.1695 102.962L40.4357 100.224L39.6171 102.44V104.697L36.7945 106.391L37.1191 105.121L37.6413 103.893L36.7945 98.8416L34.9316 105.756V107.167L33.2945 104.486L32.7723 101.889L31.361 107.167L30.119 105.474L29.4699 102.651L29.0747 105.713L27.734 109.283L25.1795 107.957C25.1287 106.705 24.9777 105.46 24.7279 104.232C24.231 105.574 23.8162 106.945 23.4859 108.338L21.6512 111.964H302.938L292.706 12.9935Z" fill="#083753"/>
</svg>
