<svg viewBox="0 0 229 122" fill="none" xmlns="http://www.w3.org/2000/svg">
<path d="M228.816 11.1425L225.994 9.02589L224.413 11.1425H221.59L220.715 13.4425H218.598L215.042 17.6756H212.614L211.387 20.4977H209.1V23.1505H207.689L205.953 25.267H203.836L201.903 28.4419H200.322L198.036 31.0947H195.679L194.268 32.6891H192.532L190.951 35.864H189.187L186.901 39.7444H183.175L180.733 42.3972C180.733 42.3972 178.659 41.8751 178.376 42.3972C178.094 42.9193 175.977 46.2775 175.977 46.2775L171.038 46.6303C171.038 46.6303 169.429 49.2831 168.286 49.0996C167.142 48.9162 165.209 48.5776 165.209 48.5776L159.917 51.0469H158.195L156.925 53.3469L153.227 53.5303L151.646 56.5359C149.226 57.6394 146.87 58.8784 144.59 60.2469C143.884 60.9524 140.864 64.3107 140.864 64.3107H136.122C135.232 65.0311 134.289 65.6821 133.299 66.258C131.806 66.7159 130.269 67.0139 128.713 67.147H124.832L122.545 69.7997H107.021L104.198 68.3887L100.854 68.7415L98.9201 66.1028L96.4503 65.75L94.5591 63.958H92.6539L90.0148 62.1236L86.3172 62.8292L82.2667 60.5432L79.4441 61.2488L76.2687 59.4144H74.6316L71.9924 57.9046L68.6618 59.4003L64.9359 55.4212L59.9964 56.1267L55.9601 51.7101L53.1375 52.5991L51.5568 48.1966L45.9963 47.8438L40.2664 43.0886L36.0325 43.272L33.8591 38.6861L31.6151 39.3916L30.5567 38.3333L28.0869 39.3916L24.1493 35.5112L22.4417 36.2168L20.1554 31.4615L18.5747 31.9978L16.8106 30.2339L14.4537 30.4174L11.5182 26.1842H7.0585L5.15324 22.9671L3.74194 22.4449L0.848778 22.9811V19.7499H-2.96173L-6.30652 14.1057L-19.7421 8.99764L-27.6454 0.743042V128.02H228.816V11.1425Z" fill="#504F6D"/>
</svg>
