<svg viewBox="0 0 41 48" fill="none" xmlns="http://www.w3.org/2000/svg">
<path d="M23.8107 39.4109C20.0227 37.6418 16.8502 34.7804 14.7011 31.1943C12.552 27.6083 11.5243 23.4615 11.7503 19.2868C11.9763 15.1122 13.4455 11.1005 15.9692 7.76738C18.4928 4.43425 21.9556 1.93197 25.9125 0.582156C21.9783 0.16421 18.0025 0.754052 14.3591 2.29618C10.7158 3.83831 7.52467 6.28201 5.08606 9.39736C2.64745 12.5127 1.04154 16.1973 0.419423 20.1043C-0.202694 24.0114 0.179444 28.0125 1.52988 31.7312C2.88031 35.4499 5.15464 38.7638 8.13886 41.3612C11.1231 43.9587 14.7191 45.7542 18.5885 46.5788C22.4579 47.4034 26.4735 47.23 30.2574 46.0749C34.0413 44.9198 37.4691 42.821 40.2183 39.976C37.5869 40.9944 34.7766 41.4693 31.9567 41.3722C29.1368 41.275 26.3658 40.6078 23.8107 39.4109Z" fill="#FAF4D4"/>
<path d="M7.10461 29.4944C8.73428 29.4944 10.0554 28.1732 10.0554 26.5436C10.0554 24.9139 8.73428 23.5928 7.10461 23.5928C5.47495 23.5928 4.15384 24.9139 4.15384 26.5436C4.15384 28.1732 5.47495 29.4944 7.10461 29.4944Z" fill="#F3EBC0"/>
<path d="M21.0521 46.7695C22.6818 46.7695 24.0029 45.4484 24.0029 43.8187C24.0029 42.189 22.6818 40.8679 21.0521 40.8679C19.4224 40.8679 18.1013 42.189 18.1013 43.8187C18.1013 45.4484 19.4224 46.7695 21.0521 46.7695Z" fill="#F3EBC0"/>
<path d="M11.632 35.9196C12.567 35.9196 13.3249 35.1617 13.3249 34.2267C13.3249 33.2918 12.567 32.5339 11.632 32.5339C10.6971 32.5339 9.93921 33.2918 9.93921 34.2267C9.93921 35.1617 10.6971 35.9196 11.632 35.9196Z" fill="#F3EBC0"/>
<path d="M13.3249 43.2249C14.2598 43.2249 15.0177 42.4669 15.0177 41.532C15.0177 40.5971 14.2598 39.8392 13.3249 39.8392C12.39 39.8392 11.6321 40.5971 11.6321 41.532C11.6321 42.4669 12.39 43.2249 13.3249 43.2249Z" fill="#F3EBC0"/>
<path d="M9.24962 22.0527C9.74154 22.0527 10.1403 21.6539 10.1403 21.162C10.1403 20.6701 9.74154 20.2713 9.24962 20.2713C8.7577 20.2713 8.35892 20.6701 8.35892 21.162C8.35892 21.6539 8.7577 22.0527 9.24962 22.0527Z" fill="#F3EBC0"/>
<path d="M11.031 8.07758C11.5229 8.07758 11.9217 7.67879 11.9217 7.18687C11.9217 6.69495 11.5229 6.29617 11.031 6.29617C10.5391 6.29617 10.1403 6.69495 10.1403 7.18687C10.1403 7.67879 10.5391 8.07758 11.031 8.07758Z" fill="#F3EBC0"/>
<path d="M5.41542 35.1174C5.90734 35.1174 6.30612 34.7187 6.30612 34.2267C6.30612 33.7348 5.90734 33.3361 5.41542 33.3361C4.9235 33.3361 4.52472 33.7348 4.52472 34.2267C4.52472 34.7187 4.9235 35.1174 5.41542 35.1174Z" fill="#F3EBC0"/>
<path d="M28.8652 45.7303C29.3571 45.7303 29.7559 45.3315 29.7559 44.8396C29.7559 44.3477 29.3571 43.9489 28.8652 43.9489C28.3733 43.9489 27.9745 44.3477 27.9745 44.8396C27.9745 45.3315 28.3733 45.7303 28.8652 45.7303Z" fill="#F3EBC0"/>
<path d="M9.68452 15.1302C10.6195 15.1302 11.3774 14.3723 11.3774 13.4374C11.3774 12.5025 10.6195 11.7445 9.68452 11.7445C8.74959 11.7445 7.99167 12.5025 7.99167 13.4374C7.99167 14.3723 8.74959 15.1302 9.68452 15.1302Z" fill="#F3EBC0"/>
<path d="M4.27003 20.2713C5.47393 20.2713 6.44989 19.2953 6.44989 18.0914C6.44989 16.8875 5.47393 15.9116 4.27003 15.9116C3.06613 15.9116 2.09018 16.8875 2.09018 18.0914C2.09018 19.2953 3.06613 20.2713 4.27003 20.2713Z" fill="#F3EBC0"/>
</svg>
