<svg viewBox="0 0 108 95" fill="none" xmlns="http://www.w3.org/2000/svg">
<g style="mix-blend-mode:screen" opacity="0.5">
<g style="mix-blend-mode:screen" opacity="0.5">
<path d="M10.0262 0.0678711L8.96776 12.1747L9.50405 16.4079L5.43951 20.2883L4.86087 25.4668L0.852783 29.4601L10.0262 28.6417L14.5 26.4122L25.4376 25.7067L10.0262 0.0678711Z" fill="#F9B69C"/>
</g>
<g style="mix-blend-mode:screen" opacity="0.5">
<path d="M31.6757 32.2821L23.7865 37.7006L21.3168 42.9779L14.6131 45.9269L12.6514 50.7527L27.3854 47.5073L31.7886 41.5104L39.4379 46.6325L43.7847 45.7435L43.0649 39.2527L31.6757 32.2821Z" fill="#F9B69C"/>
</g>
<g style="mix-blend-mode:screen" opacity="0.5">
<path d="M49.7968 57.681L44.8431 60.2632H56.1335L59.9299 63.6497L67.8614 66.119L68.5106 71.3258L73.422 72.9062L72.8998 65.8509L60.3674 58.0902L49.7968 57.681Z" fill="#F9B69C"/>
</g>
<g style="mix-blend-mode:screen" opacity="0.5">
<path d="M83.1882 81.4431L90.4705 82.6142L94.3516 81.4431L97.6541 84.2652L107.886 88.5547L94.8456 78.5222L83.1882 81.4431Z" fill="#F9B69C"/>
</g>
<g style="mix-blend-mode:screen" opacity="0.5">
<path d="M28.5427 54.4497L32.2544 62.6761H35.331L42.3452 70.8743L54.7364 72.6945L63.2042 81.0197L69.0329 82.7271L72.3777 94.0719L63.2042 87.1437H52.2667L50.4602 79.6087L38.1113 78.4375L32.2544 81.3725L29.587 77.351L33.1153 70.8602L27.2161 66.3448L28.5427 54.4497Z" fill="#F9B69C"/>
</g>
</g>
</svg>
