<svg width="289" height="189" viewBox="0 0 221 152" fill="none" xmlns="http://www.w3.org/2000/svg">
<path d="M-27.6453 33.8484L-24.724 31.5766L-22.2401 33.284L-12.9537 26.4122L-8.91738 26.5533L-1.50806 18.1716H3.74198L6.77628 13.106L11.6453 10.5661L19.0264 0.0678711L34.4378 25.7067L39.4902 26.4122L40.6757 32.2822L52.0649 39.2527L52.7847 45.7435L57.0186 50.6822L58.7968 57.681L69.3675 58.0902L81.8998 65.851L82.422 72.9062L87.9543 76.6879L92.1882 81.4431L103.846 78.5222L116.886 88.5548H121.825L125.114 94.3683L130.914 92.9573L142.995 104.486H153.989L158.279 109.424L169.104 113.686L173.761 112.486L193.068 126.117L220.377 149.399L-29.8611 151.022L-27.6453 33.8484Z" fill="#F4815F"/>
</svg>

