<svg viewBox="0 0 37 90" fill="none" xmlns="http://www.w3.org/2000/svg">
<path d="M18.3949 82.9113C18.155 81.8672 19.1853 80.9923 19.5663 79.9905C20.1167 78.5794 19.3405 76.9849 19.0724 75.461C18.7706 73.1113 19.3986 70.7367 20.8224 68.8432C22.2406 66.9758 23.8964 65.3014 25.7478 63.8622C24.1259 64.7277 22.4123 65.4093 20.6389 65.8941C19.9905 63.8898 19.9905 61.7322 20.6389 59.7278C21.0482 58.7966 21.7256 58.0205 22.1913 57.1315C23.9131 53.8438 22.77 49.1168 25.6631 46.7885L21.2599 48.5664C22.2007 44.164 23.3015 39.7897 24.5623 35.4437L22.276 36.1069C22.6288 29.0517 25.3668 29.8983 26.8768 17.7633C29.8123 28.2615 32.3244 30.9989 33.7781 35.7683C32.5674 35.5313 31.3914 35.1425 30.278 34.6112C30.1918 38.8365 31.1313 43.0198 33.016 46.8026C34.1168 48.9898 35.5563 51.2192 35.3728 53.6603L32.5502 53.7309L35.3728 59.9536C36.5442 62.4935 37.7015 65.5978 36.2196 67.9543C36.0125 68.208 35.8849 68.5172 35.8527 68.8432C35.8527 69.323 36.3608 69.6334 36.7559 69.9015C39.9031 71.9898 40.6511 76.2089 41.1309 79.9623L18.3949 82.9113Z" fill="#0E4764"/>
<path d="M30.3628 81.4016C30.036 79.9284 30.036 78.4016 30.3628 76.9285C31.1476 73.1751 32.35 69.5213 33.9475 66.0352C34.8226 63.9563 35.7164 61.882 36.629 59.8125C37.0974 58.9416 37.3673 57.9779 37.4193 56.9904C35.5108 58.0928 33.3432 58.6675 31.139 58.6554C31.2378 55.7205 34.5685 53.7873 35.0201 50.8806C35.1895 49.8364 37.3205 42.4143 39.494 40.7493C37.7509 41.4706 35.9008 41.8997 34.0181 42.0192C36.5931 36.6862 38.2715 30.9653 38.9859 25.0866C38.1416 25.6384 37.1696 25.9639 36.1633 26.032C35.3588 23.6191 37.2923 21.2768 38.3931 18.9768C40.5524 14.4614 39.5081 5.12028 41.8226 0.633148C43.9537 4.55586 44.5041 10.5952 45.2662 15.0117C45.7684 16.6408 46.3911 18.2303 47.1291 19.767C47.9335 21.686 49.7259 23.2664 49.7965 25.4111C48.4724 24.3467 46.8088 23.7956 45.111 23.859C45.8255 24.5125 46.4265 25.2802 46.8892 26.1308C47.3781 27.0965 47.7568 28.1142 48.0182 29.1645C49.1614 33.2848 49.7541 37.6308 52.2521 41.2008C54.0163 43.7266 52.4215 45.702 53.3671 46.6051C52.6096 45.9347 51.6942 45.4678 50.7067 45.2481C49.7193 45.0284 48.6922 45.0632 47.7218 45.3493C51.3992 50.5294 53.4883 56.6681 53.734 63.0156C52.2042 62.6503 50.6353 62.4749 49.0626 62.4935C53.0604 67.4024 55.4108 73.4452 55.7804 79.7647C49.8812 79.5531 43.5444 80.6819 37.6451 80.6678C34.9496 80.6819 32.7762 80.0893 30.3628 81.4016Z" fill="#0E4764"/>
<path d="M16.7861 88.104C16.9904 87.1744 16.9904 86.2115 16.7861 85.2819C16.2895 82.895 15.5273 80.5711 14.5139 78.3536C13.9588 77.0272 13.3896 75.7103 12.8062 74.4027C12.5068 73.8408 12.3379 73.2186 12.3123 72.5825C13.5262 73.2831 14.9046 73.6483 16.3063 73.6407C16.3063 71.7782 14.1188 70.5505 13.8365 68.7021C13.7377 68.0389 12.4252 63.3542 11.0139 62.2536C12.1237 62.7114 13.3015 62.9831 14.4998 63.0579C12.8574 59.6538 11.7892 56.0017 11.3385 52.2492C11.8781 52.6041 12.5005 52.8131 13.1449 52.856C13.6671 51.3179 12.4252 49.8222 11.7336 48.3689C10.3223 45.5468 11.028 39.5498 9.5461 36.7277C8.13479 39.2253 7.83843 43.0633 7.35859 45.8713C7.03939 46.9106 6.64311 47.9247 6.17307 48.9051C5.665 50.1327 4.52185 51.1345 4.47951 52.4609C5.32217 51.7864 6.37858 51.436 7.45737 51.4732C7.00657 51.8788 6.62518 52.3555 6.32832 52.8842C6.01667 53.4996 5.77524 54.148 5.60856 54.8174C4.88879 57.4419 4.50774 60.2499 2.94119 62.4652C1.81214 64.0738 2.82828 65.2873 2.23553 65.9082C2.71614 65.4818 3.29714 65.1843 3.9241 65.0436C4.55107 64.903 5.20348 64.9237 5.82025 65.1039C3.47201 68.4135 2.14262 72.3372 1.99561 76.3923C2.97107 76.1619 3.97127 76.0529 4.97347 76.0677C2.39987 79.196 0.883122 83.0588 0.640747 87.1021C4.39483 86.961 8.41707 87.6807 12.1853 87.6807C13.8647 87.6524 15.2901 87.2715 16.7861 88.104Z" fill="#0E4764"/>
<path d="M23.391 89.2893C23.5512 88.569 23.5512 87.8224 23.391 87.1021C23.0082 85.2692 22.4212 83.4848 21.641 81.7825C21.2176 80.7665 20.7801 79.7553 20.3285 78.7487C20.0967 78.3131 19.9665 77.8307 19.9474 77.3377C20.8775 77.8776 21.9345 78.1601 23.01 78.1561C23.01 76.7451 21.3446 75.7855 21.1188 74.3604C21.0341 73.8524 19.9898 70.2542 18.9313 69.4217C19.7803 69.7737 20.6815 69.9835 21.5987 70.0426C20.3371 67.4298 19.5169 64.6263 19.1712 61.7456C19.5916 62.0241 20.0789 62.1849 20.5825 62.2113C20.9777 61.0401 20.0321 59.8971 19.4958 58.7683C18.4373 56.5671 18.9595 52.0094 17.8163 49.8505C16.9113 52.1065 16.3454 54.484 16.1369 56.9057C15.8941 57.7032 15.5922 58.4814 15.2337 59.234C14.8385 60.1652 13.9635 60.9413 13.9353 61.9573C14.5813 61.4374 15.3927 61.1669 16.2216 61.1953C15.8744 61.5162 15.5834 61.893 15.3607 62.31C15.1271 62.7593 14.9426 63.2324 14.8103 63.7211C14.4653 65.7794 13.7733 67.7642 12.7639 69.591C11.903 70.8187 12.6792 71.7923 12.2276 72.2297C12.5972 71.9036 13.0437 71.6768 13.5252 71.5707C14.0066 71.4645 14.5071 71.4825 14.9796 71.623C13.1843 74.1507 12.1643 77.1465 12.0441 80.2445C12.7882 80.067 13.5514 79.9817 14.3163 79.9905C12.3439 82.3913 11.1828 85.3552 10.9998 88.4568C13.8224 88.3439 16.9696 88.8942 19.8486 88.8942C21.0433 88.6996 22.2686 88.8362 23.391 89.2893Z" fill="#0E4764"/>
</svg>
