<svg height="272" width="198" viewBox="0 0 95 185" fill="none" xmlns="http://www.w3.org/2000/svg">
    <path d="M0 51.7291L10.3448 74.3059L46.1354 81.1212L54.6456 74.5457V67.9561L65.7102 64.2027L68.2929 59.7297L85.6942 53.6199V49.8524L33.0103 53.38L28.0708 51.0236L0 51.7291Z" fill="#185770"/>
    <path d="M19.7582 35.502L40.8854 33.8652L44.5407 29.2792L59.3593 26.6829L60.2908 24.3405L19.7582 28.6866V35.502Z" fill="#185770"/>
    <path d="M45.2747 13.8706L55.3513 11.2884L58.061 7.60556L64.8776 5.86995L66.176 2.69509L50.567 0L45.2747 13.8706Z" fill="#185770"/>
    <path d="M67.8413 95.1187L81.9402 96.6568L84.6075 102.061H88.4463L89.4624 109.356L81.6015 123.693L67.8413 95.1187Z" fill="#185770"/>
    <path d="M61.5893 184.607L69.0974 182.731L76.0269 174.49L84.6076 171.203L94.642 157.558H82.8717L76.6761 149.077L74.9967 157.798L61.5893 184.607Z" fill="#185770"/>
</svg>
