<svg height="360" width="270" viewBox="0 0 144 240" fill="none" xmlns="http://www.w3.org/2000/svg">
    <path d="M143.572 0C112.179 1.47252 81.0412 6.36007 50.7079 14.5761L45.4156 28.4467C38.9246 31.213 32.6006 34.3555 26.4759 37.8584C19.6593 42.0916 19.8851 43.2628 19.8851 43.2628V50.0781C14.3344 51.9876 9.3312 55.2176 5.30636 59.4898C-1.28441 66.5451 0.126891 66.3052 0.126891 66.3052L10.4717 88.882L46.2623 95.6973C47.0287 97.9479 48.1638 100.056 49.6212 101.934C51.7382 104.403 54.9136 107.578 54.9136 107.578L67.9681 109.695L81.7283 138.269L75.1234 172.374L61.7161 199.184L57.2423 239.399H143.557L143.572 0Z" fill="#0E4764"/>
</svg>
