<svg viewBox="0 0 242 228" fill="none" xmlns="http://www.w3.org/2000/svg">
<path style="mix-blend-mode:screen" d="M5.34883 97.4752C8.30291 97.4752 10.6977 95.0809 10.6977 92.1274C10.6977 89.1738 8.30291 86.7795 5.34883 86.7795C2.39475 86.7795 0 89.1738 0 92.1274C0 95.0809 2.39475 97.4752 5.34883 97.4752Z" fill="url(#paint0_radial)"/>
<g style="mix-blend-mode:screen">
<path d="M5.34884 94.1734C6.47903 94.1734 7.39523 93.2574 7.39523 92.1274C7.39523 90.9974 6.47903 90.0813 5.34884 90.0813C4.21865 90.0813 3.30246 90.9974 3.30246 92.1274C3.30246 93.2574 4.21865 94.1734 5.34884 94.1734Z" fill="#FDDA01"/>
</g>
<path style="mix-blend-mode:screen" d="M51.9641 200.835C54.9182 200.835 57.313 198.44 57.313 195.487C57.313 192.533 54.9182 190.139 51.9641 190.139C49.01 190.139 46.6153 192.533 46.6153 195.487C46.6153 198.44 49.01 200.835 51.9641 200.835Z" fill="url(#paint1_radial)"/>
<g style="mix-blend-mode:screen">
<path d="M51.9641 197.533C53.0943 197.533 54.0105 196.617 54.0105 195.487C54.0105 194.357 53.0943 193.441 51.9641 193.441C50.8339 193.441 49.9177 194.357 49.9177 195.487C49.9177 196.617 50.8339 197.533 51.9641 197.533Z" fill="#FDDA01"/>
</g>
<path style="mix-blend-mode:screen" d="M171.953 162.623C174.907 162.623 177.302 160.229 177.302 157.275C177.302 154.322 174.907 151.927 171.953 151.927C168.999 151.927 166.604 154.322 166.604 157.275C166.604 160.229 168.999 162.623 171.953 162.623Z" fill="url(#paint2_radial)"/>
<g style="mix-blend-mode:screen">
<path d="M171.953 159.321C173.083 159.321 173.999 158.405 173.999 157.275C173.999 156.145 173.083 155.229 171.953 155.229C170.823 155.229 169.906 156.145 169.906 157.275C169.906 158.405 170.823 159.321 171.953 159.321Z" fill="#FDDA01"/>
</g>
<path style="mix-blend-mode:screen" d="M220.643 56.4137C223.597 56.4137 225.991 54.0194 225.991 51.0658C225.991 48.1123 223.597 45.718 220.643 45.718C217.689 45.718 215.294 48.1123 215.294 51.0658C215.294 54.0194 217.689 56.4137 220.643 56.4137Z" fill="url(#paint3_radial)"/>
<g style="mix-blend-mode:screen">
<path d="M220.643 53.1118C221.773 53.1118 222.689 52.1958 222.689 51.0658C222.689 49.9358 221.773 49.0198 220.643 49.0198C219.513 49.0198 218.596 49.9358 218.596 51.0658C218.596 52.1958 219.513 53.1118 220.643 53.1118Z" fill="#FDDA01"/>
</g>
<path style="mix-blend-mode:screen" d="M86.795 9.20004C89.3359 9.20004 91.3958 7.14054 91.3958 4.60002C91.3958 2.0595 89.3359 0 86.795 0C84.254 0 82.1942 2.0595 82.1942 4.60002C82.1942 7.14054 84.254 9.20004 86.795 9.20004Z" fill="url(#paint4_radial)"/>
<g style="mix-blend-mode:screen">
<path d="M86.795 6.34969C87.7615 6.34969 88.545 5.56632 88.545 4.59998C88.545 3.63365 87.7615 2.85028 86.795 2.85028C85.8285 2.85028 85.045 3.63365 85.045 4.59998C85.045 5.56632 85.8285 6.34969 86.795 6.34969Z" fill="#FDDA01"/>
</g>
<g style="mix-blend-mode:screen">
<path d="M8.3549 8.6497C9.48508 8.6497 10.4013 7.73366 10.4013 6.60368C10.4013 5.47369 9.48508 4.55766 8.3549 4.55766C7.22473 4.55766 6.30853 5.47369 6.30853 6.60368C6.30853 7.73366 7.22473 8.6497 8.3549 8.6497Z" fill="#FDDA01"/>
</g>
<g style="mix-blend-mode:screen">
<path d="M196.735 227.673C197.865 227.673 198.782 226.757 198.782 225.627C198.782 224.497 197.865 223.581 196.735 223.581C195.605 223.581 194.689 224.497 194.689 225.627C194.689 226.757 195.605 227.673 196.735 227.673Z" fill="#FDDA01"/>
</g>
<g style="mix-blend-mode:screen">
<path d="M223.677 43.9541C224.542 43.9541 225.244 43.2529 225.244 42.3879C225.244 41.5229 224.542 40.8216 223.677 40.8216C222.812 40.8216 222.111 41.5229 222.111 42.3879C222.111 43.2529 222.812 43.9541 223.677 43.9541Z" fill="#FDDA01"/>
</g>
<g style="mix-blend-mode:screen">
<path d="M44.8229 202.796C45.6881 202.796 46.3894 202.095 46.3894 201.23C46.3894 200.365 45.6881 199.663 44.8229 199.663C43.9577 199.663 43.2563 200.365 43.2563 201.23C43.2563 202.095 43.9577 202.796 44.8229 202.796Z" fill="#FDDA01"/>
</g>
<g style="mix-blend-mode:screen">
<path d="M2.72382 2.68099C3.25384 2.68099 3.6835 2.2514 3.6835 1.72148C3.6835 1.19155 3.25384 0.761963 2.72382 0.761963C2.1938 0.761963 1.76413 1.19155 1.76413 1.72148C1.76413 2.2514 2.1938 2.68099 2.72382 2.68099Z" fill="#FDDA01"/>
</g>
<g style="mix-blend-mode:screen">
<path d="M228.983 49.9934C229.513 49.9934 229.943 49.5638 229.943 49.0339C229.943 48.504 229.513 48.0744 228.983 48.0744C228.453 48.0744 228.024 48.504 228.024 49.0339C228.024 49.5638 228.453 49.9934 228.983 49.9934Z" fill="#FDDA01"/>
</g>
<g style="mix-blend-mode:screen">
<path d="M240.203 42.021C240.733 42.021 241.163 41.5914 241.163 41.0615C241.163 40.5316 240.733 40.102 240.203 40.102C239.673 40.102 239.244 40.5316 239.244 41.0615C239.244 41.5914 239.673 42.021 240.203 42.021Z" fill="#FDDA01"/>
</g>
<g style="mix-blend-mode:screen">
<path d="M238.256 68.7181C238.786 68.7181 239.215 68.2885 239.215 67.7586C239.215 67.2286 238.786 66.799 238.256 66.799C237.726 66.799 237.296 67.2286 237.296 67.7586C237.296 68.2885 237.726 68.7181 238.256 68.7181Z" fill="#FDDA01"/>
</g>
<g style="mix-blend-mode:screen">
<path d="M189.608 220.138C190.138 220.138 190.568 219.708 190.568 219.178C190.568 218.648 190.138 218.219 189.608 218.219C189.078 218.219 188.648 218.648 188.648 219.178C188.648 219.708 189.078 220.138 189.608 220.138Z" fill="#FDDA01"/>
</g>
<g style="mix-blend-mode:screen">
<path d="M49.1415 207.96C49.6715 207.96 50.1012 207.531 50.1012 207.001C50.1012 206.471 49.6715 206.041 49.1415 206.041C48.6115 206.041 48.1818 206.471 48.1818 207.001C48.1818 207.531 48.6115 207.96 49.1415 207.96Z" fill="#FDDA01"/>
</g>
<defs>
<radialGradient id="paint0_radial" cx="0" cy="0" r="1" gradientUnits="userSpaceOnUse" gradientTransform="translate(5.34883 92.1274) scale(5.34883 5.34787)">
<stop stop-color="#FEF700"/>
<stop offset="0.12" stop-color="#C3BE00"/>
<stop offset="0.25" stop-color="#8F8B00"/>
<stop offset="0.37" stop-color="#636100"/>
<stop offset="0.5" stop-color="#3F3E00"/>
<stop offset="0.62" stop-color="#242300"/>
<stop offset="0.75" stop-color="#100F00"/>
<stop offset="0.87" stop-color="#040400"/>
<stop offset="1"/>
</radialGradient>
<radialGradient id="paint1_radial" cx="0" cy="0" r="1" gradientUnits="userSpaceOnUse" gradientTransform="translate(764.749 1894.19) scale(40.5441 40.5371)">
<stop stop-color="#FEF700"/>
<stop offset="0.12" stop-color="#C3BE00"/>
<stop offset="0.25" stop-color="#8F8B00"/>
<stop offset="0.37" stop-color="#636100"/>
<stop offset="0.5" stop-color="#3F3E00"/>
<stop offset="0.62" stop-color="#242300"/>
<stop offset="0.75" stop-color="#100F00"/>
<stop offset="0.87" stop-color="#040400"/>
<stop offset="1"/>
</radialGradient>
<radialGradient id="paint2_radial" cx="0" cy="0" r="1" gradientUnits="userSpaceOnUse" gradientTransform="translate(1794.27 1566.34) scale(40.5445 40.537)">
<stop stop-color="#FEF700"/>
<stop offset="0.12" stop-color="#C3BE00"/>
<stop offset="0.25" stop-color="#8F8B00"/>
<stop offset="0.37" stop-color="#636100"/>
<stop offset="0.5" stop-color="#3F3E00"/>
<stop offset="0.62" stop-color="#242300"/>
<stop offset="0.75" stop-color="#100F00"/>
<stop offset="0.87" stop-color="#040400"/>
<stop offset="1"/>
</radialGradient>
<radialGradient id="paint3_radial" cx="0" cy="0" r="1" gradientUnits="userSpaceOnUse" gradientTransform="translate(2212.01 655.056) scale(40.544 40.537)">
<stop stop-color="#FEF700"/>
<stop offset="0.12" stop-color="#C3BE00"/>
<stop offset="0.25" stop-color="#8F8B00"/>
<stop offset="0.37" stop-color="#636100"/>
<stop offset="0.5" stop-color="#3F3E00"/>
<stop offset="0.62" stop-color="#242300"/>
<stop offset="0.75" stop-color="#100F00"/>
<stop offset="0.87" stop-color="#040400"/>
<stop offset="1"/>
</radialGradient>
<radialGradient id="paint4_radial" cx="0" cy="0" r="1" gradientUnits="userSpaceOnUse" gradientTransform="translate(926.999 221.169) scale(29.9974 29.9921)">
<stop stop-color="#FEF700"/>
<stop offset="0.12" stop-color="#C3BE00"/>
<stop offset="0.25" stop-color="#8F8B00"/>
<stop offset="0.37" stop-color="#636100"/>
<stop offset="0.5" stop-color="#3F3E00"/>
<stop offset="0.62" stop-color="#242300"/>
<stop offset="0.75" stop-color="#100F00"/>
<stop offset="0.87" stop-color="#040400"/>
<stop offset="1"/>
</radialGradient>
</defs>
</svg>
