<svg width="37" height="89" viewBox="0 0 37 89" fill="none" xmlns="http://www.w3.org/2000/svg">
    <path d="M18.3949 82.4904C18.155 81.4463 19.1853 80.5714 19.5663 79.5696C20.1167 78.1585 19.3405 76.564 19.0724 75.0401C18.7706 72.6904 19.3986 70.3158 20.8224 68.4223C22.2406 66.5549 23.8964 64.8805 25.7478 63.4413C24.1259 64.3068 22.4123 64.9884 20.6389 65.4732C19.9905 63.4689 19.9905 61.3113 20.6389 59.3069C21.0482 58.3757 21.7256 57.5996 22.1913 56.7106C23.9131 53.4229 22.77 48.6959 25.6631 46.3676L21.2599 48.1455C22.2007 43.7431 23.3015 39.3688 24.5623 35.0228L22.276 35.686C22.6288 28.6308 25.3668 29.4774 26.8768 17.3424C29.8123 27.8406 32.3244 30.578 33.7781 35.3474C32.5674 35.1104 31.3914 34.7216 30.278 34.1903C30.1918 38.4156 31.1313 42.5989 33.016 46.3817C34.1168 48.5689 35.5563 50.7983 35.3728 53.2394L32.5502 53.31L35.3728 59.5327C36.5442 62.0726 37.7015 65.1769 36.2196 67.5334C36.0125 67.7871 35.8849 68.0963 35.8527 68.4223C35.8527 68.9021 36.3608 69.2125 36.7559 69.4806C39.9031 71.5689 40.6511 75.788 41.1309 79.5414L18.3949 82.4904Z" fill="#0E4764"/>
    <path d="M30.3628 80.9807C30.036 79.5075 30.036 77.9807 30.3628 76.5076C31.1476 72.7542 32.35 69.1004 33.9475 65.6143C34.8226 63.5354 35.7164 61.4612 36.629 59.3916C37.0974 58.5207 37.3673 57.557 37.4193 56.5695C35.5108 57.6719 33.3432 58.2466 31.139 58.2345C31.2378 55.2996 34.5685 53.3664 35.0201 50.4597C35.1895 49.4155 37.3205 41.9934 39.494 40.3284C37.7509 41.0497 35.9008 41.4788 34.0181 41.5983C36.5931 36.2653 38.2715 30.5444 38.9859 24.6657C38.1416 25.2175 37.1696 25.543 36.1633 25.6111C35.3588 23.1982 37.2923 20.8559 38.3931 18.5559C40.5524 14.0405 39.5081 4.69938 41.8226 0.21225C43.9537 4.13496 44.5041 10.1743 45.2662 14.5908C45.7684 16.2199 46.3911 17.8094 47.1291 19.3461C47.9335 21.2651 49.7259 22.8455 49.7965 24.9903C48.4724 23.9258 46.8088 23.3747 45.111 23.4381C45.8255 24.0916 46.4265 24.8593 46.8892 25.7099C47.3781 26.6756 47.7568 27.6933 48.0182 28.7436C49.1614 32.8639 49.7541 37.2099 52.2521 40.7799C54.0163 43.3057 52.4215 45.2811 53.3671 46.1842C52.6096 45.5138 51.6942 45.0469 50.7067 44.8272C49.7193 44.6075 48.6922 44.6423 47.7218 44.9284C51.3992 50.1085 53.4883 56.2472 53.734 62.5947C52.2042 62.2294 50.6353 62.054 49.0626 62.0726C53.0604 66.9815 55.4108 73.0243 55.7804 79.3438C49.8812 79.1322 43.5444 80.261 37.6451 80.2469C34.9496 80.261 32.7762 79.6684 30.3628 80.9807Z" fill="#0E4764"/>
    <path d="M16.7861 87.6831C16.9904 86.7535 16.9904 85.7906 16.7861 84.861C16.2895 82.4741 15.5273 80.1502 14.5139 77.9327C13.9588 76.6063 13.3896 75.2894 12.8062 73.9818C12.5068 73.4199 12.3379 72.7977 12.3123 72.1616C13.5262 72.8622 14.9046 73.2274 16.3063 73.2198C16.3063 71.3573 14.1188 70.1296 13.8365 68.2812C13.7377 67.618 12.4252 62.9333 11.0139 61.8327C12.1237 62.2905 13.3015 62.5622 14.4998 62.637C12.8574 59.2329 11.7892 55.5808 11.3385 51.8283C11.8781 52.1832 12.5005 52.3922 13.1449 52.4351C13.6671 50.897 12.4252 49.4013 11.7336 47.948C10.3223 45.1259 11.028 39.1289 9.5461 36.3068C8.13479 38.8044 7.83843 42.6424 7.35859 45.4504C7.03939 46.4897 6.64311 47.5038 6.17307 48.4842C5.665 49.7118 4.52185 50.7136 4.47951 52.04C5.32217 51.3655 6.37858 51.0151 7.45737 51.0523C7.00657 51.4579 6.62518 51.9346 6.32832 52.4633C6.01667 53.0787 5.77524 53.7271 5.60856 54.3965C4.88879 57.021 4.50774 59.829 2.94119 62.0443C1.81214 63.6529 2.82828 64.8664 2.23553 65.4873C2.71614 65.0609 3.29714 64.7634 3.9241 64.6227C4.55107 64.4821 5.20348 64.5028 5.82025 64.683C3.47201 67.9926 2.14262 71.9163 1.99561 75.9714C2.97107 75.741 3.97127 75.632 4.97347 75.6468C2.39987 78.7751 0.883122 82.6379 0.640747 86.6812C4.39483 86.5401 8.41707 87.2598 12.1853 87.2598C13.8647 87.2315 15.2901 86.8506 16.7861 87.6831Z" fill="#0E4764"/>
    <path d="M23.391 88.8684C23.5512 88.1481 23.5512 87.4015 23.391 86.6813C23.0082 84.8483 22.4212 83.0639 21.641 81.3616C21.2176 80.3456 20.7801 79.3344 20.3285 78.3278C20.0967 77.8922 19.9665 77.4099 19.9474 76.9168C20.8775 77.4567 21.9345 77.7392 23.01 77.7352C23.01 76.3242 21.3446 75.3646 21.1188 73.9395C21.0341 73.4315 19.9898 69.8333 18.9313 69.0008C19.7803 69.3528 20.6815 69.5626 21.5987 69.6217C20.3371 67.0089 19.5169 64.2054 19.1712 61.3247C19.5916 61.6032 20.0789 61.764 20.5825 61.7904C20.9777 60.6192 20.0321 59.4762 19.4958 58.3474C18.4373 56.1462 18.9595 51.5885 17.8163 49.4296C16.9113 51.6856 16.3454 54.0631 16.1369 56.4848C15.8941 57.2823 15.5922 58.0605 15.2337 58.8131C14.8385 59.7443 13.9635 60.5204 13.9353 61.5364C14.5813 61.0165 15.3927 60.746 16.2216 60.7744C15.8744 61.0953 15.5834 61.4721 15.3607 61.8892C15.1271 62.3384 14.9426 62.8115 14.8103 63.3002C14.4653 65.3585 13.7733 67.3434 12.7639 69.1701C11.903 70.3978 12.6792 71.3714 12.2276 71.8088C12.5972 71.4827 13.0437 71.2559 13.5252 71.1498C14.0066 71.0436 14.5071 71.0616 14.9796 71.2021C13.1843 73.7298 12.1643 76.7256 12.0441 79.8236C12.7882 79.6461 13.5514 79.5608 14.3163 79.5696C12.3439 81.9704 11.1828 84.9343 10.9998 88.0359C13.8224 87.923 16.9696 88.4733 19.8486 88.4733C21.0433 88.2787 22.2686 88.4153 23.391 88.8684Z" fill="#0E4764"/>
</svg>
